<?xml version="1.0" encoding="utf-8"?>
<svg xmlns="http://www.w3.org/2000/svg" xmlns:xlink="http://www.w3.org/1999/xlink">
    <symbol xmlns="http://www.w3.org/2000/svg" id="inst" viewBox="0 0 24 24">
        <path d="M17.25 7.288v1.269c0 .297-.241.539-.538.539h-1.269c-.299 0-.538-.242-.538-.539v-1.269c0-.297.239-.538.538-.538h1.269c.297 0 .538.241.538.538zm-5.25 7.403c1.486 0 2.693-1.205 2.693-2.692s-1.207-2.69-2.693-2.69c-1.487 0-2.691 1.204-2.691 2.691s1.204 2.691 2.691 2.691zm4.261-3.291c.028.196.046.396.046.599 0 2.38-1.928 4.308-4.307 4.308s-4.307-1.928-4.307-4.307c0-.204.018-.403.046-.599.027-.194.066-.383.118-.567h-1.107v5.879c0 .297.241.538.538.538h9.424c.297 0 .538-.241.538-.538v-5.879h-1.107c.05.184.09.373.118.566zm7.739.6c0 6.627-5.373 12-12 12s-12-5.373-12-12 5.373-12 12-12 12 5.373 12 12zm-5-5.385c0-.892-.723-1.615-1.615-1.615h-10.77c-.892 0-1.615.723-1.615 1.615v10.769c0 .893.723 1.616 1.615 1.616h10.77c.892 0 1.615-.723 1.615-1.616v-10.769z"/>
    </symbol>

    <symbol xmlns="http://www.w3.org/2000/svg" id="youtube" viewBox="0 0 24 24">
        <path d="M12 0c-6.627 0-12 5.373-12 12s5.373 12 12 12 12-5.373 12-12-5.373-12-12-12zm4.441 16.892c-2.102.144-6.784.144-8.883 0-2.276-.156-2.541-1.27-2.558-4.892.017-3.629.285-4.736 2.558-4.892 2.099-.144 6.782-.144 8.883 0 2.277.156 2.541 1.27 2.559 4.892-.018 3.629-.285 4.736-2.559 4.892zm-6.441-7.234l4.917 2.338-4.917 2.346v-4.684z"/>
    </symbol>

    <symbol xmlns="http://www.w3.org/2000/svg" id="facebook" viewBox="0 0 24 24">
        <path d="M12 0c-6.627 0-12 5.373-12 12s5.373 12 12 12 12-5.373 12-12-5.373-12-12-12zm3 8h-1.35c-.538 0-.65.221-.65.778v1.222h2l-.209 2h-1.791v7h-3v-7h-2v-2h2v-2.308c0-1.769.931-2.692 3.029-2.692h1.971v3z"/>
    </symbol>

    <symbol xmlns="http://www.w3.org/2000/svg" id="lock" viewBox="0 0 24 24">
        <path d="M18 10v-4c0-3.313-2.687-6-6-6s-6 2.687-6 6v4h-3v14h18v-14h-3zm-10 0v-4c0-2.206 1.794-4 4-4s4 1.794 4 4v4h-8z"/>
    </symbol>

    <symbol xmlns="http://www.w3.org/2000/svg" id="unlock" viewBox="0 0 24 24">
        <path d="M12 10v-4c0-3.313-2.687-6-6-6s-6 2.687-6 6v3h2v-3c0-2.206 1.794-4 4-4s4 1.794 4 4v4h-4v14h18v-14h-12z"/>
    </symbol>

    <symbol xmlns="http://www.w3.org/2000/svg" id="clock" viewBox="0 0 24 24">
        <path d="M12 2c5.514 0 10 4.486 10 10s-4.486 10-10 10-10-4.486-10-10 4.486-10 10-10zm0-2c-6.627 0-12 5.373-12 12s5.373 12 12 12 12-5.373 12-12-5.373-12-12-12zm1 12v-6h-2v8h7v-2h-5z"/>
    </symbol>

    <symbol xmlns="http://www.w3.org/2000/svg" id="clock-2" viewBox="0 0 24 24">
        <path d="M12 0c-6.627 0-12 5.373-12 12s5.373 12 12 12 12-5.373 12-12-5.373-12-12-12zm6 14h-7v-8h2v6h5v2z"/>
    </symbol>

    <symbol xmlns="http://www.w3.org/2000/svg" id="magnifier" viewBox="0 0 24 24">
        <path d="M23.809 21.646l-6.205-6.205c1.167-1.605 1.857-3.579 1.857-5.711 0-5.365-4.365-9.73-9.731-9.73-5.365 0-9.73 4.365-9.73 9.73 0 5.366 4.365 9.73 9.73 9.73 2.034 0 3.923-.627 5.487-1.698l6.238 6.238 2.354-2.354zm-20.955-11.916c0-3.792 3.085-6.877 6.877-6.877s6.877 3.085 6.877 6.877-3.085 6.877-6.877 6.877c-3.793 0-6.877-3.085-6.877-6.877z"/>
    </symbol>

</svg>